<mxfile host="app.diagrams.net" modified="2023-09-10T08:28:12.690Z" agent="Mozilla/5.0 (Windows NT 10.0; Win64; x64) AppleWebKit/537.36 (KHTML, like Gecko) Chrome/114.0.0.0 YaBrowser/23.7.4.971 Yowser/2.5 Safari/537.36" etag="ADhue754NzfMvCIKIkjo" version="21.7.4" type="device">
  <diagram id="C5RBs43oDa-KdzZeNtuy" name="Page-1">
    <mxGraphModel dx="1386" dy="1998" grid="1" gridSize="10" guides="1" tooltips="1" connect="1" arrows="1" fold="1" page="1" pageScale="1" pageWidth="827" pageHeight="1169" math="0" shadow="0">
      <root>
        <mxCell id="WIyWlLk6GJQsqaUBKTNV-0" />
        <mxCell id="WIyWlLk6GJQsqaUBKTNV-1" parent="WIyWlLk6GJQsqaUBKTNV-0" />
        <mxCell id="2S87d9hJbvWZxjh_CwBJ-2" value="" style="edgeStyle=orthogonalEdgeStyle;rounded=0;orthogonalLoop=1;jettySize=auto;html=1;" edge="1" parent="WIyWlLk6GJQsqaUBKTNV-1">
          <mxGeometry relative="1" as="geometry">
            <mxPoint x="370" y="130" as="sourcePoint" />
            <mxPoint x="370" y="220" as="targetPoint" />
          </mxGeometry>
        </mxCell>
        <mxCell id="2S87d9hJbvWZxjh_CwBJ-7" value="" style="edgeStyle=orthogonalEdgeStyle;rounded=0;orthogonalLoop=1;jettySize=auto;html=1;" edge="1" parent="WIyWlLk6GJQsqaUBKTNV-1" target="2S87d9hJbvWZxjh_CwBJ-6">
          <mxGeometry relative="1" as="geometry">
            <mxPoint x="370" y="280" as="sourcePoint" />
          </mxGeometry>
        </mxCell>
        <mxCell id="2S87d9hJbvWZxjh_CwBJ-10" style="edgeStyle=orthogonalEdgeStyle;rounded=0;orthogonalLoop=1;jettySize=auto;html=1;exitX=0.5;exitY=1;exitDx=0;exitDy=0;" edge="1" parent="WIyWlLk6GJQsqaUBKTNV-1" source="2S87d9hJbvWZxjh_CwBJ-6">
          <mxGeometry relative="1" as="geometry">
            <mxPoint x="370" y="530" as="targetPoint" />
          </mxGeometry>
        </mxCell>
        <mxCell id="2S87d9hJbvWZxjh_CwBJ-12" style="edgeStyle=orthogonalEdgeStyle;rounded=0;orthogonalLoop=1;jettySize=auto;html=1;" edge="1" parent="WIyWlLk6GJQsqaUBKTNV-1" source="2S87d9hJbvWZxjh_CwBJ-6">
          <mxGeometry relative="1" as="geometry">
            <mxPoint x="510" y="405" as="targetPoint" />
          </mxGeometry>
        </mxCell>
        <mxCell id="2S87d9hJbvWZxjh_CwBJ-6" value="i&amp;lt;array.length" style="rhombus;whiteSpace=wrap;html=1;rounded=0;" vertex="1" parent="WIyWlLk6GJQsqaUBKTNV-1">
          <mxGeometry x="280" y="350" width="180" height="110" as="geometry" />
        </mxCell>
        <mxCell id="2S87d9hJbvWZxjh_CwBJ-9" value="yes" style="text;html=1;align=center;verticalAlign=middle;resizable=0;points=[];autosize=1;strokeColor=none;fillColor=none;" vertex="1" parent="WIyWlLk6GJQsqaUBKTNV-1">
          <mxGeometry x="380" y="470" width="40" height="30" as="geometry" />
        </mxCell>
        <mxCell id="2S87d9hJbvWZxjh_CwBJ-13" value="No&lt;br&gt;" style="text;html=1;align=center;verticalAlign=middle;resizable=0;points=[];autosize=1;strokeColor=none;fillColor=none;" vertex="1" parent="WIyWlLk6GJQsqaUBKTNV-1">
          <mxGeometry x="450" y="368" width="40" height="30" as="geometry" />
        </mxCell>
        <mxCell id="2S87d9hJbvWZxjh_CwBJ-21" style="edgeStyle=orthogonalEdgeStyle;rounded=0;orthogonalLoop=1;jettySize=auto;html=1;exitX=1;exitY=0.5;exitDx=0;exitDy=0;" edge="1" parent="WIyWlLk6GJQsqaUBKTNV-1" source="2S87d9hJbvWZxjh_CwBJ-14">
          <mxGeometry relative="1" as="geometry">
            <mxPoint x="520" y="575" as="targetPoint" />
          </mxGeometry>
        </mxCell>
        <mxCell id="2S87d9hJbvWZxjh_CwBJ-26" value="" style="edgeStyle=orthogonalEdgeStyle;rounded=0;orthogonalLoop=1;jettySize=auto;html=1;" edge="1" parent="WIyWlLk6GJQsqaUBKTNV-1" source="2S87d9hJbvWZxjh_CwBJ-14">
          <mxGeometry relative="1" as="geometry">
            <mxPoint x="370" y="700" as="targetPoint" />
          </mxGeometry>
        </mxCell>
        <mxCell id="2S87d9hJbvWZxjh_CwBJ-14" value="len&amp;gt;=array[i].Length" style="rhombus;whiteSpace=wrap;html=1;" vertex="1" parent="WIyWlLk6GJQsqaUBKTNV-1">
          <mxGeometry x="295" y="530" width="150" height="90" as="geometry" />
        </mxCell>
        <mxCell id="2S87d9hJbvWZxjh_CwBJ-22" value="yes" style="text;html=1;align=center;verticalAlign=middle;resizable=0;points=[];autosize=1;strokeColor=none;fillColor=none;" vertex="1" parent="WIyWlLk6GJQsqaUBKTNV-1">
          <mxGeometry x="450" y="538" width="40" height="30" as="geometry" />
        </mxCell>
        <mxCell id="2S87d9hJbvWZxjh_CwBJ-32" value="" style="edgeStyle=orthogonalEdgeStyle;rounded=0;orthogonalLoop=1;jettySize=auto;html=1;" edge="1" parent="WIyWlLk6GJQsqaUBKTNV-1">
          <mxGeometry relative="1" as="geometry">
            <mxPoint x="630" y="408" as="sourcePoint" />
            <mxPoint x="710" y="408" as="targetPoint" />
          </mxGeometry>
        </mxCell>
        <mxCell id="2S87d9hJbvWZxjh_CwBJ-29" style="edgeStyle=orthogonalEdgeStyle;rounded=0;orthogonalLoop=1;jettySize=auto;html=1;exitX=0.5;exitY=1;exitDx=0;exitDy=0;entryX=1;entryY=0.5;entryDx=0;entryDy=0;" edge="1" parent="WIyWlLk6GJQsqaUBKTNV-1" target="2S87d9hJbvWZxjh_CwBJ-27">
          <mxGeometry relative="1" as="geometry">
            <mxPoint x="580" y="605" as="sourcePoint" />
            <Array as="points">
              <mxPoint x="580" y="730" />
            </Array>
          </mxGeometry>
        </mxCell>
        <mxCell id="2S87d9hJbvWZxjh_CwBJ-30" style="edgeStyle=orthogonalEdgeStyle;rounded=0;orthogonalLoop=1;jettySize=auto;html=1;entryX=0;entryY=0.5;entryDx=0;entryDy=0;" edge="1" parent="WIyWlLk6GJQsqaUBKTNV-1" source="2S87d9hJbvWZxjh_CwBJ-27" target="2S87d9hJbvWZxjh_CwBJ-6">
          <mxGeometry relative="1" as="geometry">
            <Array as="points">
              <mxPoint x="110" y="730" />
              <mxPoint x="110" y="405" />
            </Array>
          </mxGeometry>
        </mxCell>
        <mxCell id="2S87d9hJbvWZxjh_CwBJ-27" value="i++" style="rounded=0;whiteSpace=wrap;html=1;" vertex="1" parent="WIyWlLk6GJQsqaUBKTNV-1">
          <mxGeometry x="310" y="700" width="120" height="60" as="geometry" />
        </mxCell>
        <mxCell id="2S87d9hJbvWZxjh_CwBJ-28" value="no" style="text;html=1;align=center;verticalAlign=middle;resizable=0;points=[];autosize=1;strokeColor=none;fillColor=none;" vertex="1" parent="WIyWlLk6GJQsqaUBKTNV-1">
          <mxGeometry x="370" y="638" width="40" height="30" as="geometry" />
        </mxCell>
        <mxCell id="2S87d9hJbvWZxjh_CwBJ-43" value="" style="edgeStyle=orthogonalEdgeStyle;rounded=0;orthogonalLoop=1;jettySize=auto;html=1;" edge="1" parent="WIyWlLk6GJQsqaUBKTNV-1" target="2S87d9hJbvWZxjh_CwBJ-42">
          <mxGeometry relative="1" as="geometry">
            <mxPoint x="830" y="408" as="sourcePoint" />
          </mxGeometry>
        </mxCell>
        <mxCell id="2S87d9hJbvWZxjh_CwBJ-35" value="" style="edgeStyle=orthogonalEdgeStyle;rounded=0;orthogonalLoop=1;jettySize=auto;html=1;" edge="1" parent="WIyWlLk6GJQsqaUBKTNV-1" source="2S87d9hJbvWZxjh_CwBJ-33">
          <mxGeometry relative="1" as="geometry">
            <mxPoint x="370" y="-120" as="targetPoint" />
          </mxGeometry>
        </mxCell>
        <mxCell id="2S87d9hJbvWZxjh_CwBJ-33" value="Start" style="ellipse;whiteSpace=wrap;html=1;" vertex="1" parent="WIyWlLk6GJQsqaUBKTNV-1">
          <mxGeometry x="310" y="-250" width="120" height="80" as="geometry" />
        </mxCell>
        <mxCell id="2S87d9hJbvWZxjh_CwBJ-48" style="edgeStyle=orthogonalEdgeStyle;rounded=0;orthogonalLoop=1;jettySize=auto;html=1;exitX=0.5;exitY=1;exitDx=0;exitDy=0;entryX=0.5;entryY=0;entryDx=0;entryDy=0;" edge="1" parent="WIyWlLk6GJQsqaUBKTNV-1" target="2S87d9hJbvWZxjh_CwBJ-47">
          <mxGeometry relative="1" as="geometry">
            <mxPoint x="370" y="-60" as="sourcePoint" />
          </mxGeometry>
        </mxCell>
        <mxCell id="2S87d9hJbvWZxjh_CwBJ-39" value="" style="edgeStyle=orthogonalEdgeStyle;rounded=0;orthogonalLoop=1;jettySize=auto;html=1;entryX=0.5;entryY=0;entryDx=0;entryDy=0;" edge="1" parent="WIyWlLk6GJQsqaUBKTNV-1" target="2S87d9hJbvWZxjh_CwBJ-41">
          <mxGeometry relative="1" as="geometry">
            <mxPoint x="370" y="50" as="sourcePoint" />
            <mxPoint x="370" y="60" as="targetPoint" />
            <Array as="points">
              <mxPoint x="370" y="30" />
              <mxPoint x="371" y="30" />
            </Array>
          </mxGeometry>
        </mxCell>
        <mxCell id="2S87d9hJbvWZxjh_CwBJ-41" value="Start&amp;nbsp;&lt;br&gt;Method NewArray" style="rounded=1;whiteSpace=wrap;html=1;" vertex="1" parent="WIyWlLk6GJQsqaUBKTNV-1">
          <mxGeometry x="310" y="100" width="120" height="60" as="geometry" />
        </mxCell>
        <mxCell id="2S87d9hJbvWZxjh_CwBJ-42" value="End" style="ellipse;whiteSpace=wrap;html=1;" vertex="1" parent="WIyWlLk6GJQsqaUBKTNV-1">
          <mxGeometry x="930" y="368" width="130" height="80" as="geometry" />
        </mxCell>
        <mxCell id="2S87d9hJbvWZxjh_CwBJ-44" value="End&lt;br&gt;Method NewArray" style="rounded=1;whiteSpace=wrap;html=1;" vertex="1" parent="WIyWlLk6GJQsqaUBKTNV-1">
          <mxGeometry x="510" y="375" width="120" height="60" as="geometry" />
        </mxCell>
        <mxCell id="2S87d9hJbvWZxjh_CwBJ-45" value="Print NewArray &quot;Новый массив:[]&quot;" style="shape=document;whiteSpace=wrap;html=1;boundedLbl=1;" vertex="1" parent="WIyWlLk6GJQsqaUBKTNV-1">
          <mxGeometry x="707" y="375" width="120" height="80" as="geometry" />
        </mxCell>
        <mxCell id="2S87d9hJbvWZxjh_CwBJ-47" value="Print&amp;nbsp;&lt;br&gt;FierstArray" style="shape=document;whiteSpace=wrap;html=1;boundedLbl=1;" vertex="1" parent="WIyWlLk6GJQsqaUBKTNV-1">
          <mxGeometry x="310" y="-20" width="120" height="80" as="geometry" />
        </mxCell>
        <mxCell id="2S87d9hJbvWZxjh_CwBJ-49" value="string[] array,&lt;br style=&quot;border-color: var(--border-color);&quot;&gt;&amp;nbsp;int len,&lt;br style=&quot;border-color: var(--border-color);&quot;&gt;i=0" style="shape=parallelogram;perimeter=parallelogramPerimeter;whiteSpace=wrap;html=1;fixedSize=1;" vertex="1" parent="WIyWlLk6GJQsqaUBKTNV-1">
          <mxGeometry x="310" y="220" width="120" height="60" as="geometry" />
        </mxCell>
        <mxCell id="2S87d9hJbvWZxjh_CwBJ-50" value="string [] FirstArray&amp;nbsp;" style="shape=parallelogram;perimeter=parallelogramPerimeter;whiteSpace=wrap;html=1;fixedSize=1;" vertex="1" parent="WIyWlLk6GJQsqaUBKTNV-1">
          <mxGeometry x="310" y="-120" width="120" height="60" as="geometry" />
        </mxCell>
        <mxCell id="2S87d9hJbvWZxjh_CwBJ-51" value="Print array[i}" style="shape=document;whiteSpace=wrap;html=1;boundedLbl=1;" vertex="1" parent="WIyWlLk6GJQsqaUBKTNV-1">
          <mxGeometry x="520" y="540" width="120" height="80" as="geometry" />
        </mxCell>
      </root>
    </mxGraphModel>
  </diagram>
</mxfile>
